<svg width="24" height="24" viewBox="0 0 24 24" fill="none" xmlns="http://www.w3.org/2000/svg">
<g id="material-symbols:award-star-rounded">
<path id="Vector" d="M12 14.475L13.925 15.625C14.1083 15.7417 14.2877 15.7377 14.463 15.613C14.6383 15.4883 14.7007 15.3173 14.65 15.1L14.15 12.925L15.85 11.45C16.0167 11.3 16.0667 11.121 16 10.913C15.9333 10.705 15.7833 10.5923 15.55 10.575L13.325 10.4L12.45 8.325C12.3667 8.125 12.2167 8.025 12 8.025C11.7833 8.025 11.6333 8.125 11.55 8.325L10.675 10.4L8.45 10.575C8.21667 10.5917 8.06667 10.7043 8 10.913C7.93333 11.1217 7.98333 11.3007 8.15 11.45L9.85 12.925L9.35 15.1C9.3 15.3167 9.36267 15.4877 9.538 15.613C9.71333 15.7383 9.89233 15.7423 10.075 15.625L12 14.475ZM8.65 20H6C5.45 20 4.97933 19.8043 4.588 19.413C4.19667 19.0217 4.00067 18.5507 4 18V15.35L2.075 13.4C1.89167 13.2 1.75 12.9793 1.65 12.738C1.55 12.4967 1.5 12.2507 1.5 12C1.5 11.7493 1.55 11.5037 1.65 11.263C1.75 11.0223 1.89167 10.8013 2.075 10.6L4 8.65V6C4 5.45 4.196 4.97933 4.588 4.588C4.98 4.19667 5.45067 4.00067 6 4H8.65L10.6 2.075C10.8 1.89167 11.021 1.75 11.263 1.65C11.505 1.55 11.7507 1.5 12 1.5C12.2493 1.5 12.4953 1.55 12.738 1.65C12.9807 1.75 13.2013 1.89167 13.4 2.075L15.35 4H18C18.55 4 19.021 4.196 19.413 4.588C19.805 4.98 20.0007 5.45067 20 6V8.65L21.925 10.6C22.1083 10.8 22.25 11.021 22.35 11.263C22.45 11.505 22.5 11.7507 22.5 12C22.5 12.2493 22.45 12.4953 22.35 12.738C22.25 12.9807 22.1083 13.2013 21.925 13.4L20 15.35V18C20 18.55 19.8043 19.021 19.413 19.413C19.0217 19.805 18.5507 20.0007 18 20H15.35L13.4 21.925C13.2 22.1083 12.9793 22.25 12.738 22.35C12.4967 22.45 12.2507 22.5 12 22.5C11.7493 22.5 11.5037 22.45 11.263 22.35C11.0223 22.25 10.8013 22.1083 10.6 21.925L8.65 20Z" fill="#8E48EC"/>
</g>
</svg>
